<svg xmlns="http://www.w3.org/2000/svg" width="1200" height="630" viewBox="0 0 1200 630" role="img" aria-labelledby="title desc">
  <title id="title">Arima Finance</title><desc id="desc">Quantitative intelligence, research and financial technology.</desc>
  <rect width="1200" height="630" fill="#050914"/>
  <g stroke="#182641" opacity=".85"><path d="M0 105h1200M0 210h1200M0 315h1200M0 420h1200M0 525h1200"/><path d="M150 0v630M300 0v630M450 0v630M600 0v630M750 0v630M900 0v630M1050 0v630"/></g>
  <rect x="90" y="92" width="1020" height="446" rx="26" fill="#0d1728" stroke="#223452"/>
  <circle cx="167" cy="187" r="24" fill="none" stroke="#42d7d0"/><circle cx="179" cy="175" r="6" fill="#d9b56f"/>
  <text x="215" y="200" fill="#42d7d0" font-family="Arial,sans-serif" font-size="26" font-weight="600" letter-spacing="6">ARIMA FINANCE</text>
  <text x="148" y="332" fill="#f4f7fb" font-family="Arial,sans-serif" font-size="67" font-weight="700">Quantitative Intelligence</text>
  <text x="150" y="399" fill="#9aa7bb" font-family="Arial,sans-serif" font-size="29">Research · Algorithms · Portfolio Systems</text>
  <rect x="150" y="457" width="185" height="6" rx="3" fill="#42d7d0"/>
</svg>
